<?xml version="1.0" standalone="no"?>
<!DOCTYPE svg PUBLIC "-//W3C//DTD SVG 20010904//EN"
 "http://www.w3.org/TR/2001/REC-SVG-20010904/DTD/svg10.dtd">
<svg version="1.0" xmlns="http://www.w3.org/2000/svg"
 width="512.000000pt" height="512.000000pt" viewBox="0 0 512.000000 512.000000"
 preserveAspectRatio="xMidYMid meet">

<g transform="translate(0.000000,512.000000) scale(0.100000,-0.100000)"
fill="#000000" stroke="none">
<path d="M1803 4854 c-197 -147 -383 -286 -413 -309 l-55 -42 -488 165 c-406
137 -493 164 -515 156 -57 -20 -56 -24 121 -547 l166 -488 -304 -407 c-168
-224 -308 -417 -311 -430 -4 -13 1 -32 11 -49 l17 -26 523 6 523 5 248 -351
c361 -513 349 -497 382 -497 16 0 36 6 45 13 11 7 58 143 124 357 59 190 108
347 110 350 2 2 619 -611 1371 -1362 1310 -1309 1369 -1367 1421 -1383 219
-71 412 153 309 360 -13 26 -483 504 -1376 1397 -746 747 -1354 1359 -1352
1361 3 2 160 52 350 111 190 59 350 112 357 118 7 6 13 26 13 44 0 42 11 34
-474 374 l-377 265 5 130 c3 72 7 305 8 519 l2 388 -23 19 c-13 10 -31 19 -42
19 -10 0 -179 -120 -376 -266z m314 53 c-3 -8 -7 -217 -8 -465 -3 -434 -3
-451 16 -472 10 -11 182 -137 382 -278 200 -141 360 -259 355 -263 -4 -3 -194
-64 -422 -134 -228 -70 -427 -134 -441 -141 -14 -7 -31 -26 -37 -41 -6 -15
-68 -212 -138 -438 -69 -225 -129 -413 -133 -417 -3 -3 -125 163 -271 369
-154 219 -274 379 -286 383 -12 5 -228 6 -480 3 -450 -6 -459 -5 -443 13 8 10
133 177 277 370 202 270 262 358 262 380 0 16 -65 220 -144 454 -80 234 -143
426 -142 427 2 2 198 -63 437 -144 314 -106 441 -145 459 -140 14 4 187 128
385 276 198 149 364 270 369 271 4 0 6 -6 3 -13z m2860 -4606 c41 -94 -53
-193 -154 -163 -31 9 -294 267 -1416 1389 l-1377 1378 23 70 23 70 65 22 64
21 1378 -1376 c854 -852 1385 -1390 1394 -1411z"/>
</g>
</svg>
